# Blender v2.58 (sub 1) OBJ File: 'untitled.blend'
# www.blender.org
mtllib corn.mtl
o Circle
v 0.000000 0.000000 -0.100000
v 0.058779 0.000000 -0.080902
v 0.095106 0.000000 -0.030902
v 0.095106 0.000000 0.030902
v 0.058779 0.000000 0.080902
v -0.000000 0.000000 0.100000
v -0.058779 0.000000 0.080902
v -0.095106 0.000000 0.030902
v -0.095106 0.000000 -0.030902
v -0.058778 0.000000 -0.080902
v -0.058778 0.000000 -0.080902
v -0.095106 0.000000 -0.030902
v -0.095106 0.000000 0.030902
v -0.058779 0.000000 0.080902
v -0.000000 0.000000 0.100000
v 0.058779 0.000000 0.080902
v 0.095106 0.000000 0.030902
v 0.095106 0.000000 -0.030902
v 0.058779 0.000000 -0.080902
v 0.000000 0.000000 -0.100000
v 0.000000 0.544488 -0.124571
v 0.058779 0.545339 -0.105492
v 0.095106 0.547569 -0.055541
v 0.095106 0.550325 0.006201
v 0.058779 0.552555 0.056151
v -0.000000 0.553406 0.075230
v -0.058779 0.552555 0.056151
v -0.095106 0.550325 0.006201
v -0.095106 0.547569 -0.055541
v -0.058779 0.545339 -0.105492
v -0.058778 1.732806 -0.234434
v -0.095106 1.737621 -0.184666
v -0.095106 1.743573 -0.123150
v -0.058779 1.748389 -0.073383
v -0.000000 1.750228 -0.054373
v 0.058779 1.748389 -0.073383
v 0.095106 1.743573 -0.123150
v 0.095106 1.737621 -0.184666
v 0.058779 1.732806 -0.234434
v 0.000000 1.730967 -0.253443
v 0.000000 2.786661 -0.444146
v 0.058779 2.790347 -0.425406
v 0.095106 2.799994 -0.376346
v 0.095106 2.811918 -0.315704
v 0.058779 2.821565 -0.266643
v -0.000000 2.825250 -0.247904
v -0.058779 2.821565 -0.266643
v -0.095106 2.811918 -0.315704
v -0.095106 2.799994 -0.376346
v -0.058779 2.790347 -0.425406
v -0.058778 4.212796 -0.715471
v -0.095106 4.226251 -0.667316
v -0.095106 4.242884 -0.607792
v -0.058779 4.256339 -0.559637
v -0.000000 4.261479 -0.541243
v 0.058779 4.256339 -0.559637
v 0.095106 4.242884 -0.607792
v 0.095106 4.226251 -0.667316
v 0.058779 4.212796 -0.715471
v 0.000000 4.207656 -0.733865
v -0.058779 1.132874 -0.153710
v 0.000000 1.130065 -0.172599
v -0.095106 1.140227 -0.104258
v -0.095106 1.149317 -0.043131
v -0.058779 1.156670 0.006322
v -0.000000 1.159479 0.025211
v 0.058779 1.156670 0.006322
v 0.095106 1.149317 -0.043131
v 0.095106 1.140227 -0.104258
v 0.058779 1.132874 -0.153710
vt 1.150328 0.029585
vt 1.134721 0.016728
vt 1.141126 0.015696
vt 1.157799 0.029739
vt 1.094409 0.008796
vt 1.097295 0.006963
vt 1.044990 0.008863
vt 1.043178 0.006946
vt 1.006230 0.016922
vt 1.000407 0.015709
vt 0.994248 0.029845
vt 0.986994 0.029701
vt 1.006873 0.042740
vt 1.000403 0.043699
vt 1.046045 0.050667
vt 1.043156 0.052486
vt 1.095436 0.050558
vt 1.097237 0.052485
vt 1.135335 0.042490
vt 1.141069 0.043772
vt 0.893924 0.011733
vt 0.986994 0.012400
vt 0.984985 0.203880
vt 0.891154 0.203587
vt 0.800564 0.010479
vt 0.797651 0.203074
vt 0.706594 0.008986
vt 0.703567 0.202494
vt 0.611924 0.007692
vt 0.608708 0.202015
vt 0.517388 0.006946
vt 0.513095 0.201780
vt 0.422826 0.007392
vt 0.417479 0.201713
vt 0.328105 0.008388
vt 0.322605 0.201891
vt 0.234076 0.009583
vt 0.228502 0.202174
vt 0.140666 0.010541
vt 0.134984 0.202391
vt 0.047574 0.010914
vt 0.041146 0.202387
vt 0.879838 0.591602
vt 0.974984 0.592510
vt 0.986983 0.789223
vt 0.891109 0.789189
vt 0.785538 0.590014
vt 0.795423 0.789232
vt 0.691432 0.588107
vt 0.698513 0.789292
vt 0.597462 0.586371
vt 0.600083 0.789329
vt 0.504643 0.585209
vt 0.500137 0.789305
vt 0.411780 0.586077
vt 0.400197 0.789012
vt 0.317740 0.587515
vt 0.301775 0.788663
vt 0.223557 0.589123
vt 0.204874 0.788296
vt 0.129195 0.590412
vt 0.109197 0.787949
vt 0.034016 0.591019
vt 0.013329 0.787679
vt 0.119166 0.984053
vt 0.026263 0.982799
vt 0.212510 0.986247
vt 0.306712 0.988885
vt 0.401891 0.991330
vt 0.495638 0.993054
vt 0.589455 0.991627
vt 0.684735 0.989484
vt 0.779046 0.987145
vt 0.872480 0.985248
vt 0.965432 0.984288
vt 0.136131 0.393702
vt 0.042324 0.393348
vt 0.229741 0.394481
vt 0.323091 0.395445
vt 0.416136 0.396277
vt 0.508800 0.396706
vt 0.601477 0.396570
vt 0.694553 0.396032
vt 0.787939 0.395364
vt 0.881577 0.394880
vt 0.975394 0.394824
vn 0.000000 0.000000 0.000000
vn 0.308875 -0.042860 -0.950136
vn 0.808875 -0.026459 -0.587385
vn 1.000000 0.000000 0.000000
vn 0.808877 0.026338 0.587388
vn 0.308877 0.042544 0.950150
vn -0.308877 0.042544 0.950150
vn -0.808877 0.026338 0.587388
vn -1.000000 -0.000000 0.000000
vn -0.808875 -0.026459 -0.587385
vn -0.308875 -0.042860 -0.950136
vn 0.308528 -0.169065 -0.936070
vn 0.808528 -0.104530 -0.579099
vn 0.808531 0.104335 0.579130
vn 0.308533 0.168559 0.936160
vn -0.308533 0.168559 0.936160
vn -0.808531 0.104335 0.579130
vn -0.808528 -0.104530 -0.579099
vn -0.308527 -0.169065 -0.936071
vn -0.308657 -0.190036 -0.931996
vn -0.808658 -0.117567 -0.576411
vn -0.808660 0.117678 0.576386
vn -0.308662 0.190325 0.931936
vn 0.308662 0.190325 0.931936
vn 0.808660 0.117678 0.576387
vn 0.808658 -0.117567 -0.576412
vn 0.308658 -0.190036 -0.931996
vn -0.308607 -0.077778 -0.948004
vn -0.308895 -0.126824 -0.942602
vn -0.808607 -0.048162 -0.586374
vn -0.808896 -0.078418 -0.582699
vn -0.808609 0.048328 0.586359
vn -0.808895 0.078475 0.582692
vn -0.308610 0.078214 0.947968
vn -0.308896 0.126974 0.942582
vn 0.308609 0.078214 0.947968
vn 0.308895 0.126974 0.942582
vn 0.808609 0.048328 0.586359
vn 0.808895 0.078475 0.582692
vn 0.808607 -0.048162 -0.586374
vn 0.808896 -0.078418 -0.582699
vn 0.308608 -0.077778 -0.948004
vn 0.308896 -0.126824 -0.942602
usemtl Material.001_untitled
s off
f 1/1/1 10/2/1 11/3/1
f 1/1/1 11/3/1 20/4/1
f 10/2/1 9/5/1 12/6/1
f 10/2/1 12/6/1 11/3/1
f 9/5/1 8/7/1 13/8/1
f 9/5/1 13/8/1 12/6/1
f 8/7/1 7/9/1 14/10/1
f 8/7/1 14/10/1 13/8/1
f 7/9/1 6/11/1 15/12/1
f 7/9/1 15/12/1 14/10/1
f 6/11/1 5/13/1 16/14/1
f 6/11/1 16/14/1 15/12/1
f 5/13/1 4/15/1 17/16/1
f 5/13/1 17/16/1 16/14/1
f 4/15/1 3/17/1 18/18/1
f 4/15/1 18/18/1 17/16/1
f 3/17/1 2/19/1 19/20/1
f 3/17/1 19/20/1 18/18/1
f 2/19/1 1/1/1 20/4/1
f 2/19/1 20/4/1 19/20/1
f 19/21/2 20/22/2 21/23/2
f 19/21/2 21/23/2 22/24/2
f 18/25/3 19/21/3 22/24/3
f 18/25/3 22/24/3 23/26/3
f 17/27/4 18/25/4 23/26/4
f 17/27/4 23/26/4 24/28/4
f 16/29/5 17/27/5 24/28/5
f 16/29/5 24/28/5 25/30/5
f 15/31/6 16/29/6 25/30/6
f 15/31/6 25/30/6 26/32/6
f 14/33/7 15/31/7 26/32/7
f 14/33/7 26/32/7 27/34/7
f 13/35/8 14/33/8 27/34/8
f 13/35/8 27/34/8 28/36/8
f 12/37/9 13/35/9 28/36/9
f 12/37/9 28/36/9 29/38/9
f 11/39/10 12/37/10 29/38/10
f 11/39/10 29/38/10 30/40/10
f 20/41/11 11/39/11 30/40/11
f 20/41/11 30/40/11 21/42/11
f 39/43/12 40/44/12 41/45/12
f 39/43/12 41/45/12 42/46/12
f 38/47/13 39/43/13 42/46/13
f 38/47/13 42/46/13 43/48/13
f 37/49/4 38/47/4 43/48/4
f 37/49/4 43/48/4 44/50/4
f 36/51/14 37/49/14 44/50/14
f 36/51/14 44/50/14 45/52/14
f 35/53/15 36/51/15 45/52/15
f 35/53/15 45/52/15 46/54/15
f 34/55/16 35/53/16 46/54/16
f 34/55/16 46/54/16 47/56/16
f 33/57/17 34/55/17 47/56/17
f 33/57/17 47/56/17 48/58/17
f 32/59/9 33/57/9 48/58/9
f 32/59/9 48/58/9 49/60/9
f 31/61/18 32/59/18 49/60/18
f 31/61/18 49/60/18 50/62/18
f 40/63/19 31/61/19 50/62/19
f 40/63/19 50/62/19 41/64/19
f 41/64/20 50/62/20 51/65/20
f 41/64/20 51/65/20 60/66/20
f 50/62/21 49/60/21 52/67/21
f 50/62/21 52/67/21 51/65/21
f 49/60/9 48/58/9 53/68/9
f 49/60/9 53/68/9 52/67/9
f 48/58/22 47/56/22 54/69/22
f 48/58/22 54/69/22 53/68/22
f 47/56/23 46/54/23 55/70/23
f 47/56/23 55/70/23 54/69/23
f 46/54/24 45/52/24 56/71/24
f 46/54/24 56/71/24 55/70/24
f 45/52/25 44/50/25 57/72/25
f 45/52/25 57/72/25 56/71/25
f 44/50/4 43/48/4 58/73/4
f 44/50/4 58/73/4 57/72/4
f 43/48/26 42/46/26 59/74/26
f 43/48/26 59/74/26 58/73/26
f 42/46/27 41/45/27 60/75/27
f 42/46/27 60/75/27 59/74/27
f 30/40/28 61/76/28 62/77/28
f 30/40/28 62/77/28 21/42/28
f 61/76/29 31/61/29 40/63/29
f 61/76/29 40/63/29 62/77/29
f 29/38/30 63/78/30 61/76/30
f 29/38/30 61/76/30 30/40/30
f 63/78/31 32/59/31 31/61/31
f 63/78/31 31/61/31 61/76/31
f 28/36/9 64/79/9 63/78/9
f 28/36/9 63/78/9 29/38/9
f 64/79/9 33/57/9 32/59/9
f 64/79/9 32/59/9 63/78/9
f 27/34/32 65/80/32 64/79/32
f 27/34/32 64/79/32 28/36/32
f 65/80/33 34/55/33 33/57/33
f 65/80/33 33/57/33 64/79/33
f 26/32/34 66/81/34 65/80/34
f 26/32/34 65/80/34 27/34/34
f 66/81/35 35/53/35 34/55/35
f 66/81/35 34/55/35 65/80/35
f 25/30/36 67/82/36 66/81/36
f 25/30/36 66/81/36 26/32/36
f 67/82/37 36/51/37 35/53/37
f 67/82/37 35/53/37 66/81/37
f 24/28/38 68/83/38 67/82/38
f 24/28/38 67/82/38 25/30/38
f 68/83/39 37/49/39 36/51/39
f 68/83/39 36/51/39 67/82/39
f 23/26/4 69/84/4 68/83/4
f 23/26/4 68/83/4 24/28/4
f 69/84/4 38/47/4 37/49/4
f 69/84/4 37/49/4 68/83/4
f 22/24/40 70/85/40 69/84/40
f 22/24/40 69/84/40 23/26/40
f 70/85/41 39/43/41 38/47/41
f 70/85/41 38/47/41 69/84/41
f 21/23/42 62/86/42 70/85/42
f 21/23/42 70/85/42 22/24/42
f 62/86/43 40/44/43 39/43/43
f 62/86/43 39/43/43 70/85/43
