# Blender v2.59 (sub 0) OBJ File: ''
# www.blender.org
mtllib novcic.mtl
o Circle_Circle.001
v 0.000000 0.008711 -1.000000
v 0.587785 0.008711 -0.809017
v 0.951057 0.008711 -0.309017
v 0.951056 0.008711 0.309017
v 0.587785 0.008711 0.809017
v -0.000000 0.008711 1.000000
v -0.587785 0.008711 0.809017
v -0.951056 0.008711 0.309017
v -0.951056 0.008711 -0.309017
v -0.587785 0.008711 -0.809017
v 0.000000 0.008711 0.000000
v 0.000000 0.121134 -1.000000
v -0.587785 0.121134 -0.809017
v -0.951056 0.121134 -0.309017
v -0.951056 0.121134 0.309017
v -0.587785 0.121134 0.809017
v -0.000000 0.121134 1.000000
v 0.587785 0.121134 0.809017
v 0.951056 0.121134 0.309017
v 0.951057 0.121134 -0.309017
v 0.587785 0.121134 -0.809017
v 0.000000 0.121134 0.000000
vt 0.279377 0.597919
vt 0.508947 0.600133
vt 0.463802 0.734648
vt 0.348213 0.816937
vt 0.206331 0.815569
vt 0.092351 0.731066
vt 0.049808 0.595706
vt 0.094953 0.461191
vt 0.210542 0.378902
vt 0.352423 0.380270
vt 0.466404 0.464773
vt 0.877116 0.320438
vt 0.969046 0.320428
vt 0.969048 0.337150
vt 0.877118 0.337161
vt 0.050007 0.320428
vt 0.141884 0.320439
vt 0.141882 0.337152
vt 0.050005 0.337141
vt 0.233762 0.320449
vt 0.233760 0.337163
vt 0.325645 0.320459
vt 0.325644 0.337173
vt 0.417536 0.320465
vt 0.417535 0.337181
vt 0.509437 0.320467
vt 0.509437 0.337185
vt 0.601347 0.320464
vt 0.601347 0.337184
vt 0.693264 0.320458
vt 0.693266 0.337179
vt 0.785188 0.320449
vt 0.785190 0.337171
vt 0.350529 0.816470
vt 0.279585 0.598127
vt 0.465319 0.733070
vt 0.208641 0.816470
vt 0.093850 0.733070
vt 0.050005 0.598127
vt 0.093851 0.463183
vt 0.208641 0.379783
vt 0.350529 0.379783
vt 0.465319 0.463183
vt 0.509165 0.598127
vn -0.000000 -1.000000 0.000000
vn -0.309017 0.000000 -0.951057
vn -0.809017 0.000000 -0.587785
vn -1.000000 -0.000000 0.000000
vn -0.809017 0.000000 0.587785
vn -0.309017 0.000000 0.951056
vn 0.309017 0.000000 0.951057
vn 0.809017 0.000000 0.587785
vn 1.000000 0.000000 0.000000
vn 0.809017 0.000000 -0.587785
vn 0.309017 0.000000 -0.951056
vn 0.000000 1.000000 -0.000000
usemtl _novcic
s off
f 11/1/1 1/2/1 2/3/1
f 11/1/1 2/3/1 3/4/1
f 11/1/1 3/4/1 4/5/1
f 11/1/1 4/5/1 5/6/1
f 11/1/1 5/6/1 6/7/1
f 11/1/1 6/7/1 7/8/1
f 11/1/1 7/8/1 8/9/1
f 11/1/1 8/9/1 9/10/1
f 11/1/1 9/10/1 10/11/1
f 10/11/1 1/2/1 11/1/1
f 1/12/2 10/13/2 13/14/2
f 1/12/2 13/14/2 12/15/2
f 10/16/3 9/17/3 14/18/3
f 10/16/3 14/18/3 13/19/3
f 9/17/4 8/20/4 15/21/4
f 9/17/4 15/21/4 14/18/4
f 8/20/5 7/22/5 16/23/5
f 8/20/5 16/23/5 15/21/5
f 7/22/6 6/24/6 17/25/6
f 7/22/6 17/25/6 16/23/6
f 6/24/7 5/26/7 18/27/7
f 6/24/7 18/27/7 17/25/7
f 5/26/8 4/28/8 19/29/8
f 5/26/8 19/29/8 18/27/8
f 4/28/9 3/30/9 20/31/9
f 4/28/9 20/31/9 19/29/9
f 3/30/10 2/32/10 21/33/10
f 3/30/10 21/33/10 20/31/10
f 2/32/11 1/12/11 12/15/11
f 2/32/11 12/15/11 21/33/11
f 13/34/12 22/35/12 12/36/12
f 22/35/12 13/34/12 14/37/12
f 22/35/12 14/37/12 15/38/12
f 22/35/12 15/38/12 16/39/12
f 22/35/12 16/39/12 17/40/12
f 22/35/12 17/40/12 18/41/12
f 22/35/12 18/41/12 19/42/12
f 22/35/12 19/42/12 20/43/12
f 22/35/12 20/43/12 21/44/12
f 22/35/12 21/44/12 12/36/12
